<svg xmlns="http://www.w3.org/2000/svg" width="41" height="41.062" viewBox="0 0 41 41.062"><defs><style>.cls-1{fill:#3e3e3e;fill-rule:evenodd;filter:url(#filter)}</style><filter id="filter" x="1586" y="381.969" width="41" height="41.062" filterUnits="userSpaceOnUse"><feFlood result="flood" flood-color="#06121c"/><feComposite result="composite" operator="in" in2="SourceGraphic"/><feBlend result="blend" in2="SourceGraphic"/></filter></defs><path id="Arrow_Right_2" class="cls-1" d="M1606.66 381.983a5.064 5.064 0 0 0-3.63 1.473l-14.9 14.18a1.21 1.21 0 0 0-.22.168 6.41 6.41 0 0 0-.07 9.06l14.9 14.638a5.125 5.125 0 0 0 7.29-7.2l-5.3-5.592a.69.69 0 0 1-.2-.472.626.626 0 0 1 .19-.447.639.639 0 0 1 .46-.189l16.65.134a5.139 5.139 0 0 0 5.17-5.014v-.052a5.136 5.136 0 0 0-5.08-5.154l-16.66-.133a.636.636 0 0 1-.45-.193.65.65 0 0 1-.19-.453.636.636 0 0 1 .2-.452l5.41-5.541a5.126 5.126 0 0 0-3.57-8.761zm-17.11 17.817a1.751 1.751 0 0 0 .15-.12l15.11-14.384a2.615 2.615 0 0 1 3.64.014 2.576 2.576 0 0 1-.03 3.624l-5.42 5.542a3.2 3.2 0 0 0 2.24 5.468l16.65.134a2.545 2.545 0 1 1-.04 5.089l-16.65-.133a3.2 3.2 0 0 0-2.31 5.449l5.29 5.593a2.548 2.548 0 0 1-.01 3.641 2.617 2.617 0 0 1-3.62-.029l-14.9-14.638a3.835 3.835 0 0 1-.1-5.25z" transform="translate(-1586 -381.969)"/></svg>